<svg viewBox="0 0 400 300" xmlns="http://www.w3.org/2000/svg">
  <!-- Background -->
  <rect width="400" height="300" fill="#f8fafc"/>
  
  <!-- Desk -->
  <rect x="50" y="200" width="300" height="80" rx="8" fill="#e2e8f0"/>
  
  <!-- Person 1 -->
  <circle cx="100" cy="150" r="25" fill="#fbbf24"/>
  <circle cx="95" cy="145" r="3" fill="#374151"/>
  <circle cx="105" cy="145" r="3" fill="#374151"/>
  <path d="M 90 155 Q 100 165 110 155" stroke="#374151" stroke-width="2" fill="none"/>
  <rect x="85" y="175" width="30" height="40" rx="15" fill="#3b82f6"/>
  
  <!-- Person 2 -->
  <circle cx="200" cy="140" r="25" fill="#f87171"/>
  <circle cx="195" cy="135" r="3" fill="#374151"/>
  <circle cx="205" cy="135" r="3" fill="#374151"/>
  <path d="M 190 145 Q 200 155 210 145" stroke="#374151" stroke-width="2" fill="none"/>
  <rect x="185" y="165" width="30" height="40" rx="15" fill="#10b981"/>
  
  <!-- Person 3 -->
  <circle cx="300" cy="155" r="25" fill="#a78bfa"/>
  <circle cx="295" cy="150" r="3" fill="#374151"/>
  <circle cx="305" cy="150" r="3" fill="#374151"/>
  <path d="M 290 160 Q 300 170 310 160" stroke="#374151" stroke-width="2" fill="none"/>
  <rect x="285" y="180" width="30" height="40" rx="15" fill="#f59e0b"/>
  
  <!-- Computers -->
  <rect x="80" y="180" width="40" height="25" rx="3" fill="#1f2937"/>
  <rect x="83" y="183" width="34" height="19" rx="2" fill="#3b82f6"/>
  
  <rect x="180" y="170" width="40" height="25" rx="3" fill="#1f2937"/>
  <rect x="183" y="173" width="34" height="19" rx="2" fill="#10b981"/>
  
  <rect x="280" y="185" width="40" height="25" rx="3" fill="#1f2937"/>
  <rect x="283" y="188" width="34" height="19" rx="2" fill="#f59e0b"/>
  
  <!-- Chat bubbles -->
  <ellipse cx="130" cy="120" rx="20" ry="12" fill="#ffffff" stroke="#e5e7eb" stroke-width="2"/>
  <text x="130" y="125" text-anchor="middle" font-family="Arial" font-size="8" fill="#374151">Hi AI!</text>
  
  <ellipse cx="230" cy="110" rx="25" ry="15" fill="#ffffff" stroke="#e5e7eb" stroke-width="2"/>
  <text x="230" y="115" text-anchor="middle" font-family="Arial" font-size="8" fill="#374151">Help me!</text>
  
  <ellipse cx="330" cy="125" rx="22" ry="13" fill="#ffffff" stroke="#e5e7eb" stroke-width="2"/>
  <text x="330" y="130" text-anchor="middle" font-family="Arial" font-size="8" fill="#374151">Thanks!</text>
  
  <!-- AI Response bubble -->
  <ellipse cx="200" cy="80" rx="35" ry="18" fill="#3b82f6" stroke="#2563eb" stroke-width="2"/>
  <text x="200" y="85" text-anchor="middle" font-family="Arial" font-size="9" fill="#ffffff">I'm here to help!</text>
  
  <!-- Connection lines -->
  <path d="M 130 108 Q 165 90 165 80" stroke="#94a3b8" stroke-width="2" fill="none" stroke-dasharray="3,3"/>
  <path d="M 230 95 Q 215 85 200 80" stroke="#94a3b8" stroke-width="2" fill="none" stroke-dasharray="3,3"/>
  <path d="M 330 112 Q 265 90 235 80" stroke="#94a3b8" stroke-width="2" fill="none" stroke-dasharray="3,3"/>
</svg>