<?xml version="1.0" encoding="UTF-8"?>
<svg width="800px" height="600px" viewBox="0 0 800 600" version="1.1" xmlns="http://www.w3.org/2000/svg" xmlns:xlink="http://www.w3.org/1999/xlink">
    <title>Chat Illustration</title>
    <defs>
        <linearGradient x1="50%" y1="0%" x2="50%" y2="100%" id="linearGradient-1">
            <stop stop-color="#FF7E5F" offset="0%"></stop>
            <stop stop-color="#FEB47B" offset="100%"></stop>
        </linearGradient>
    </defs>
    <g stroke="none" stroke-width="1" fill="none" fill-rule="evenodd">
        <!-- Computer -->
        <rect fill="#2D3748" x="250" y="200" width="300" height="200" rx="8"></rect>
        <rect fill="#1A202C" x="260" y="210" width="280" height="160" rx="4"></rect>
        <rect fill="#4A5568" x="300" y="400" width="200" height="20" rx="4"></rect>
        <rect fill="#2D3748" x="350" y="420" width="100" height="10" rx="2"></rect>
        
        <!-- Screen Content -->
        <circle fill="#38B2AC" cx="280" cy="230" r="5"></circle>
        <circle fill="#F56565" cx="300" cy="230" r="5"></circle>
        <circle fill="#ECC94B" cx="320" cy="230" r="5"></circle>
        <rect fill="#4A5568" x="280" y="250" width="240" height="10" rx="2"></rect>
        <rect fill="#4A5568" x="280" y="270" width="180" height="10" rx="2"></rect>
        <rect fill="#4A5568" x="280" y="290" width="220" height="10" rx="2"></rect>
        <rect fill="#4A5568" x="280" y="310" width="200" height="10" rx="2"></rect>
        <rect fill="#4A5568" x="280" y="330" width="160" height="10" rx="2"></rect>
        <rect fill="url(#linearGradient-1)" x="280" y="350" width="100" height="10" rx="2"></rect>
        
        <!-- Person 1 -->
        <circle fill="#E2E8F0" cx="180" cy="300" r="40"></circle>
        <rect fill="#E2E8F0" x="160" y="350" width="40" height="80" rx="10"></rect>
        <rect fill="#E2E8F0" x="140" y="370" width="20" height="60" rx="8"></rect>
        <rect fill="#E2E8F0" x="200" y="370" width="20" height="60" rx="8"></rect>
        
        <!-- Person 2 -->
        <circle fill="#EDF2F7" cx="400" cy="500" r="40"></circle>
        <rect fill="#EDF2F7" x="380" y="550" width="40" height="80" rx="10"></rect>
        <rect fill="#EDF2F7" x="360" y="570" width="20" height="60" rx="8"></rect>
        <rect fill="#EDF2F7" x="420" y="570" width="20" height="60" rx="8"></rect>
        
        <!-- Person 3 -->
        <circle fill="#F7FAFC" cx="620" cy="300" r="40"></circle>
        <rect fill="#F7FAFC" x="600" y="350" width="40" height="80" rx="10"></rect>
        <rect fill="#F7FAFC" x="580" y="370" width="20" height="60" rx="8"></rect>
        <rect fill="#F7FAFC" x="640" y="370" width="20" height="60" rx="8"></rect>
        
        <!-- Speech Bubbles -->
        <path d="M220,260 L260,240 C270,235 280,240 280,250 L280,280 C280,290 270,295 260,290 L220,270 C210,265 210,265 220,260 Z" fill="#4A5568"></path>
        <path d="M580,260 L540,240 C530,235 520,240 520,250 L520,280 C520,290 530,295 540,290 L580,270 C590,265 590,265 580,260 Z" fill="#4A5568"></path>
        <path d="M440,460 L480,440 C490,435 500,440 500,450 L500,480 C500,490 490,495 480,490 L440,470 C430,465 430,465 440,460 Z" fill="#4A5568"></path>
    </g>
</svg>